<?xml version="1.0" standalone="no"?>
<!DOCTYPE svg PUBLIC "-//W3C//DTD SVG 20010904//EN"
 "http://www.w3.org/TR/2001/REC-SVG-20010904/DTD/svg10.dtd">
<svg version="1.0" xmlns="http://www.w3.org/2000/svg"
 width="269.000000pt" height="143.000000pt" viewBox="0 0 269.000000 143.000000"
 preserveAspectRatio="xMidYMid meet">

<g transform="translate(0.000000,143.000000) scale(0.100000,-0.100000)"
fill="#000000" stroke="none">
<path d="M213 1227 c-13 -5 -25 -18 -28 -28 -3 -10 28 -127 69 -260 l76 -242
0 -242 c0 -222 2 -243 18 -258 24 -22 44 -21 71 1 20 16 21 28 23 207 l3 190
185 0 185 0 5 -191 c5 -203 10 -224 55 -224 12 0 29 8 38 18 15 16 17 47 17
233 -1 293 14 279 -283 279 l-204 0 -78 248 c-43 136 -82 252 -87 258 -13 18
-41 22 -65 11z"/>
<path d="M2460 1227 c-19 -10 -37 -54 -103 -264 l-80 -253 -204 0 c-297 0
-282 14 -283 -281 0 -197 2 -217 18 -232 10 -10 28 -17 39 -17 42 0 48 23 53
224 l5 191 185 0 185 0 3 -190 c2 -179 3 -191 23 -207 27 -23 52 -23 72 0 15
16 17 49 17 258 l0 239 75 243 c42 134 73 251 70 261 -8 27 -47 42 -75 28z"/>
<path d="M846 1220 c-73 -14 -99 -82 -52 -137 l24 -28 193 -3 c201 -3 209 -5
209 -48 0 -11 16 -35 35 -53 l35 -31 0 -253 c0 -138 -4 -257 -8 -263 -4 -6
-18 -15 -32 -19 -14 -4 -34 -15 -45 -25 -11 -9 -42 -20 -70 -24 -67 -9 -116
-36 -139 -78 -39 -70 -50 -68 364 -68 408 0 396 -2 370 61 -16 38 -82 77 -146
85 -27 4 -58 14 -69 24 -11 10 -33 22 -50 27 l-30 10 -3 263 -2 263 35 34 c20
19 35 44 35 56 0 44 14 47 211 47 173 0 188 1 213 21 36 28 36 86 0 120 l-26
24 -506 2 c-279 0 -525 -2 -546 -7z"/>
</g>
</svg>
